<svg width="32" height="32" viewBox="0 0 32 32" fill="none" xmlns="http://www.w3.org/2000/svg">
<path d="M24.3608 16.5572L24.6646 16.3504L24.3606 16.1438L23.8602 15.8038L23.86 15.8037L23.2996 15.422L23.2402 15.3802C23.2333 15.3749 23.2261 15.3699 23.2188 15.3653L22.7533 15.0479L22.7531 15.0477L22.53 14.8959L22.53 14.8958L21.8237 14.415L21.8237 14.415L21.426 14.1442L21.4259 14.1442L20.921 13.8002L20.7803 13.7043L20.6395 13.8002L20.1792 14.1136L20.1786 14.114L20.082 14.1802L20.0815 14.1805L19.732 14.4188L19.7318 14.4189L19.031 14.8958L19.0307 14.896L18.7972 15.0555L18.7969 15.0557L18.3058 15.3898L18.3056 15.3899L18.2722 15.4127L18.2721 15.4128L17.6993 15.8033L17.6992 15.8034L17.1885 16.1513L16.8847 16.3582L17.1887 16.5647L18.2522 17.2871L18.2531 17.2877L18.3293 17.34L18.3932 17.3838H18.3961L18.8001 17.6588L18.9408 17.7546L19.0815 17.6588L19.5459 17.3425L19.5494 17.3403L19.5496 17.3406L19.56 17.3335L19.6197 17.2928V22.1012L18.5974 21.4047L18.5973 21.4046L17.6156 20.7365L17.6154 20.7364L16.4795 19.9621L16.4794 19.962L16.0083 19.6412L16.0083 19.6412L15.7852 19.4894L15.7852 19.4893L14.1766 18.3936L14.1765 18.3936L13.5945 17.9977L13.5944 17.9976L11.4754 16.5543L11.4751 16.554L11.4463 16.5344L11.446 16.5341L10.6622 16.0002L11.442 15.4698L11.448 15.4657L11.4538 15.4613C11.4579 15.4582 11.4638 15.4541 11.4734 15.448L11.4735 15.4481L11.4809 15.4431L13.5959 14.0028L13.596 14.0028L13.6523 13.9645L13.6523 13.9644L15.2608 12.8683L15.2609 12.8682L17.1042 11.6134L17.1042 11.6134L19.5984 9.91466C19.6107 9.90693 19.621 9.89959 19.6265 9.89567L20.0121 9.63143L20.0125 9.6312L21.3858 8.69355L21.3874 8.69245L21.458 8.64502L21.4653 8.64014L21.47 8.6365L21.822 8.39856L21.932 8.32421V8.19144V6V5.5271L21.5413 5.79341L20.1673 6.72972L20.1536 6.73872L20.1536 6.73869L20.15 6.74108L20.1044 6.77214L20.1044 6.77213L20.1024 6.77357L20.0933 6.77987L20.0912 6.78133L19.7305 7.02687L19.7305 7.02688L18.3635 7.95747L18.3579 7.96088L18.3512 7.96548L18.2756 8.0178L18.2741 8.01886L13.3679 11.3603L13.3679 11.3603L11.7588 12.456L11.7587 12.456L10.4394 13.3551L10.4393 13.3552L9.87761 13.7375L9.87759 13.7375L8.46789 14.6974L8.46781 14.6974L6.85922 15.7937L6.55546 16.0007L6.8596 16.2071L6.87286 16.2161L6.87318 16.2163L7.88041 16.9023L7.88057 16.9024L8.05441 17.0205L8.05472 17.0208L8.46771 17.3025L8.46786 17.3026L9.87853 18.2634L9.87862 18.2635L10.4383 18.6443L10.4384 18.6444L12.2856 19.9026L12.2857 19.9027L13.8947 20.997L13.8953 20.9974L14.1174 21.1494L14.1177 21.1497L15.7263 22.2464L15.7264 22.2464L17.1986 23.2489L17.2002 23.25L17.2049 23.2533L17.2063 23.2542L17.3892 23.3789L17.3893 23.379L19.7304 24.9736L19.7306 24.9737L21.5434 26.2067L21.934 26.4724V26V17.2892C21.9397 17.2933 21.9456 17.2973 21.9516 17.3011L21.9771 17.3188L22.0414 17.3634H22.046L22.4708 17.6525L22.6115 17.7482L22.7522 17.6525L23.194 17.3517L23.1941 17.3516L23.3317 17.2581L23.3319 17.2579L24.3608 16.5572Z" fill="black" stroke="black" stroke-width="0.5"/>
</svg>
