<svg width="20" height="22" viewBox="0 0 20 22" fill="none" xmlns="http://www.w3.org/2000/svg">
<path d="M18.3608 11.5572L18.6646 11.3504L18.3606 11.1438L17.8602 10.8038L17.86 10.8037L17.2996 10.4221L17.2401 10.3802C17.2333 10.3748 17.2261 10.3699 17.2188 10.3653L16.7533 10.0479L16.7531 10.0477L16.53 9.89586L16.53 9.89584L15.8237 9.41497L15.8237 9.41496L15.426 9.14424L15.4259 9.14418L14.921 8.80019L14.7803 8.70431L14.6395 8.80015L14.1792 9.11363L14.1786 9.11404L14.082 9.18018L14.0815 9.18052L13.732 9.41882L13.7318 9.41893L13.031 9.89583L13.0307 9.89605L12.7972 10.0555L12.7969 10.0557L12.3058 10.3898L12.3056 10.3899L12.2722 10.4127L12.2721 10.4128L11.6993 10.8033L11.6992 10.8034L11.1885 11.1513L10.8847 11.3582L11.1887 11.5647L12.2522 12.2871L12.2531 12.2877L12.3293 12.34L12.3932 12.3838H12.3961L12.8001 12.6588L12.9408 12.7546L13.0815 12.6588L13.546 12.3424L13.5494 12.3403L13.5496 12.3406L13.56 12.3335L13.6197 12.2927V17.1012L12.5974 16.4047L12.5973 16.4046L11.6156 15.7365L11.6154 15.7364L10.4795 14.9621L10.4794 14.962L10.0083 14.6412L10.0083 14.6412L9.78522 14.4894L9.78515 14.4893L8.17663 13.3936L8.1765 13.3936L7.59451 12.9977L7.59438 12.9976L5.47545 11.5543L5.47511 11.554L5.44635 11.5344L5.44601 11.5341L4.66222 11.0002L5.44198 10.4698L5.44804 10.4657L5.45384 10.4613C5.45787 10.4582 5.46378 10.4541 5.47342 10.448L5.47351 10.4481L5.4809 10.4431L7.59594 9.00283L7.59598 9.0028L7.65226 8.96446L7.65228 8.96445L9.26077 7.86831L9.26087 7.86824L11.1042 6.61343L11.1042 6.6134L13.5984 4.91466C13.6107 4.90694 13.621 4.8996 13.6265 4.89568L14.0121 4.63143L14.0125 4.6312L15.3858 3.69355L15.3874 3.69245L15.458 3.64502L15.4653 3.64014L15.47 3.6365L15.822 3.39856L15.932 3.32421V3.19144V1V0.527103L15.5413 0.793409L14.1673 1.72972L14.1536 1.73873L14.1535 1.7387L14.15 1.74108L14.1044 1.77214L14.1044 1.77213L14.1024 1.77356L14.0933 1.77987L14.0912 1.78133L13.7305 2.02687L13.7305 2.02688L12.3635 2.95747L12.3579 2.96087L12.3512 2.96548L12.2756 3.0178L12.2741 3.01886L7.36787 6.36027L7.36786 6.36028L5.7588 7.45598L5.75872 7.45603L4.43936 8.35515L4.43925 8.35522L3.87761 8.73753L3.87759 8.73755L2.46789 9.69739L2.46781 9.69745L0.859215 10.7937L0.555452 11.0007L0.859601 11.2071L0.872862 11.2161L0.873183 11.2163L1.88041 11.9023L1.88057 11.9024L2.0544 12.0205L2.05472 12.0208L2.46771 12.3025L2.46786 12.3026L3.87853 13.2634L3.87862 13.2635L4.43833 13.6443L4.43842 13.6444L6.28559 14.9026L6.28573 14.9027L7.8947 15.997L7.89529 15.9974L8.11736 16.1494L8.11772 16.1497L9.72631 17.2464L9.72643 17.2464L11.1986 18.2489L11.2002 18.25L11.2049 18.2533L11.2063 18.2542L11.3892 18.3789L11.3893 18.379L13.7304 19.9736L13.7306 19.9737L15.5434 21.2067L15.934 21.4724V21V12.2892C15.9397 12.2933 15.9456 12.2973 15.9516 12.3011L15.9771 12.3188L16.0414 12.3634H16.046L16.4708 12.6525L16.6115 12.7482L16.7522 12.6525L17.194 12.3517L17.1941 12.3516L17.3317 12.2581L17.3319 12.2579L18.3608 11.5572Z" fill="black" stroke="black" stroke-width="0.5"/>
</svg>
